<svg width="13" height="18" viewBox="0 0 13 18" fill="none" xmlns="http://www.w3.org/2000/svg">
<path d="M12.2082 1.92392C12.5533 1.92402 12.8333 1.64428 12.8333 1.2991C12.8333 0.953924 12.5537 0.67402 12.2085 0.67392L1.37518 0.670784C1.03 0.670684 0.75 0.950425 0.75 1.2956C0.75 1.64078 1.02964 1.92068 1.37482 1.92078L12.2082 1.92392ZM6.70686 17.3308L6.79167 17.3365C7.10808 17.3365 7.36958 17.1013 7.41096 16.7963L7.41667 16.7115L7.41583 5.3073L10.5173 8.40757C10.7393 8.62944 11.0865 8.64958 11.3311 8.46801L11.4012 8.40748C11.6231 8.18557 11.6432 7.83835 11.4617 7.59369L11.4011 7.5236L7.23643 3.35975C7.01465 3.13801 6.66766 3.11776 6.423 3.29906L6.3529 3.3595L2.18336 7.52334C1.93912 7.76725 1.93885 8.16298 2.18276 8.40723C2.40449 8.62927 2.7517 8.64968 2.9965 8.4683L3.06664 8.40783L6.16583 5.31313L6.16667 16.7115C6.16667 17.0279 6.40179 17.2894 6.70686 17.3308Z" fill="#545454"/>
</svg>
